<svg data-v-3c87b7b4="" xmlns="http://www.w3.org/2000/svg" width="213.59335327148438" height="24.5" viewBox="0 0 305.13336181640625 35" class="badge-svg"><defs data-v-3c87b7b4=""><filter data-v-3c87b7b4="" id="primaryShadow" x="-50%" y="-50%" width="200%" height="200%"><feGaussianBlur data-v-3c87b7b4="" in="SourceAlpha" stdDeviation="0"/><feOffset data-v-3c87b7b4="" dx="0" dy="0" result="offsetblur"/><feFlood data-v-3c87b7b4="" flood-color="#c0c0c0"/><feComposite data-v-3c87b7b4="" in2="offsetblur" operator="in"/><feMerge data-v-3c87b7b4=""><feMergeNode data-v-3c87b7b4=""/><feMergeNode data-v-3c87b7b4="" in="SourceGraphic"/></feMerge></filter><filter data-v-3c87b7b4="" id="secondaryShadow" x="-50%" y="-50%" width="200%" height="200%"><feGaussianBlur data-v-3c87b7b4="" in="SourceAlpha" stdDeviation="0"/><feOffset data-v-3c87b7b4="" dx="1" dy="1" result="offsetblur"/><feFlood data-v-3c87b7b4="" flood-color="#000000"/><feComposite data-v-3c87b7b4="" in2="offsetblur" operator="in"/><feMerge data-v-3c87b7b4=""><feMergeNode data-v-3c87b7b4=""/><feMergeNode data-v-3c87b7b4="" in="SourceGraphic"/></feMerge></filter><!----></defs><path data-v-3c87b7b4="" d="M 6 0 L 104.53334045410156 0 L 104.53334045410156 35 L 6 35 Q 0 35 0 29 L 0 6 Q 0 0 6 0 Z" fill="#555"/><path data-v-3c87b7b4="" d="M 104.53334045410156 0 L 299.13336181640625 0 Q 305.13336181640625 0 305.13336181640625 6 L 305.13336181640625 29 Q 305.13336181640625 35 299.13336181640625 35 L 104.53334045410156 35 Z" fill="#97ca00"/><!----><text data-v-3c87b7b4="" x="52.26667022705078" y="17.5" dy="0.35em" font-size="12" font-family="Roboto, sans-serif" fill="#FFFFFF" text-anchor="middle" letter-spacing="2" font-weight="600" font-style="normal" text-decoration="none" fill-opacity="1" font-variant="normal" style="text-transform: uppercase;" filter="url(#primaryShadow)">LANGUAGE</text><g data-v-3c87b7b4="" transform="translate(114.53334045410156, 9.5) scale(0.6666666666666666)"><path data-v-3c87b7b4="" d="M20.514.508V.51H1.803C1.053.51.079 1.135 0 2.27v17.133h.002v2.325c.08 1.136 1.05 1.763 1.8 1.763h1.505l.002-.002h18.869c1.256-.053 1.766-1.066 1.822-1.699v-3.023h-.002V2.209c-.056-.633-.567-1.648-1.824-1.701h-1.66zM3.412 1.623h17.154c.898 0 1.618.72 1.618 1.617v16.64c0 .898-.72 1.62-1.618 1.62H3.412a1.616 1.616 0 01-1.619-1.62V3.24c0-.897.722-1.617 1.62-1.617zm3.315 12.412l-1.895 5.037h.703l.526-1.467h2.02l.497 1.467h.744l-1.824-5.037h-.771zm8.43.008v5.037h.679v-1.767l.793-.758 1.76 2.525h.884l-2.154-3.002 2.098-2.035h-.94l-2.441 2.441v-2.441h-.68zm-5.153.027v5.037h.682v-2.351h2.628v2.351h.682V14.07h-.682v2.084h-2.628V14.07h-.682zm-2.926.717h.014l.742 2.217H6.271l.807-2.217z" fill="#FFFFFF"/></g><text data-v-3c87b7b4="" x="214.8333511352539" y="17.5" dy="0.35em" font-size="12" font-family="Montserrat, sans-serif" fill="#FFFFFF" text-anchor="middle" font-weight="900" letter-spacing="2" font-style="normal" text-decoration="none" fill-opacity="1" font-variant="normal" style="text-transform: uppercase;" filter="url(#secondaryShadow)">AUTOHOTKEY V1.1</text><!----></svg>